<?xml version="1.0" encoding="UTF-8" standalone="no"?>
<!-- Created with Inkscape (http://www.inkscape.org/) -->

<svg
   xmlns:dc="http://purl.org/dc/elements/1.1/"
   xmlns:cc="http://creativecommons.org/ns#"
   xmlns:rdf="http://www.w3.org/1999/02/22-rdf-syntax-ns#"
   xmlns:svg="http://www.w3.org/2000/svg"
   xmlns="http://www.w3.org/2000/svg"
   xmlns:sodipodi="http://sodipodi.sourceforge.net/DTD/sodipodi-0.dtd"
   xmlns:inkscape="http://www.inkscape.org/namespaces/inkscape"
   width="744.09448819"
   height="1052.3622047"
   id="svg2"
   version="1.1"
   inkscape:version="0.48.4 r9939"
   sodipodi:docname="kabinetung.svg">
  <defs
     id="defs4" />
  <sodipodi:namedview
     id="base"
     pagecolor="#ffffff"
     bordercolor="#666666"
     borderopacity="1.0"
     inkscape:pageopacity="0.0"
     inkscape:pageshadow="2"
     inkscape:zoom="0.08487801"
     inkscape:cx="-1991.8058"
     inkscape:cy="3171.6158"
     inkscape:document-units="cm"
     inkscape:current-layer="layer1"
     showgrid="false"
     showborder="false"
     inkscape:window-width="1920"
     inkscape:window-height="1033"
     inkscape:window-x="-4"
     inkscape:window-y="-4"
     inkscape:window-maximized="1" />
  <metadata
     id="metadata7">
    <rdf:RDF>
      <cc:Work
         rdf:about="">
        <dc:format>image/svg+xml</dc:format>
        <dc:type
           rdf:resource="http://purl.org/dc/dcmitype/StillImage" />
        <dc:title />
      </cc:Work>
    </rdf:RDF>
  </metadata>
  <g
     inkscape:label="Layer 1"
     inkscape:groupmode="layer"
     id="layer1">
    <path
       style="fill:#e9afaf;stroke:#000000;stroke-width:5.41534615px;stroke-linecap:butt;stroke-linejoin:miter;stroke-opacity:1"
       d="m 4429.1339,-5148.4252 1240.1574,0 0,6200.7874 -1946.5694,0 0,-184.35512 c 20.6218,-102.51807 167.8336,-47.07773 174.9159,-185.86827 l 0,-1854.20261 c -12.2191,-226.8 -355.2205,-147.609 -354.3342,-258.5993 l 0,-708.6556 c -0.9991,-153.8391 753.5895,35.6261 843.6612,-218.1932 228.1298,-610.7761 437.6864,-1103.9022 626.0734,-1690.7035 -0.2384,-315.3473 -583.8857,-380.0442 -583.9043,-571.4276 z"
       id="path2989"
       inkscape:connector-curvature="0"
       sodipodi:nodetypes="ccccccccccccc" />
    <path
       sodipodi:nodetypes="ccccccccccccc"
       inkscape:connector-curvature="0"
       id="path3016"
       d="m 4431.845,-5148.4252 1240.1579,0 0,6198.0763 -1948.8194,0 0,-174.45435 245.3204,0 0,-2305.86065 -422.4857,0 0,-708.6548 1701.5842,0 0,-2480.3216 -815.7574,0 z"
       style="fill:#e3dbdb;stroke:#000000;stroke-width:5.42225361px;stroke-linecap:butt;stroke-linejoin:miter;stroke-opacity:1" />
    <rect
       style="fill:#ff00ff"
       id="rect3269"
       width="1240.1575"
       height="63.779526"
       x="3616.9558"
       y="-2133.5457" />
    <path
       style="fill:#ffd42a;stroke:#000000;stroke-width:1px;stroke-linecap:butt;stroke-linejoin:miter;stroke-opacity:1"
       d="m 5224.0998,-3806.3905 -669.4366,1635.5426 36.8916,4.6997 134.704,-329.1041 468.321,191.6862 410.5878,-1003.1327 -479.759,-196.3681 z"
       id="path3273"
       inkscape:connector-curvature="0" />
    <rect
       style="fill:#ff5555"
       id="rect3275"
       width="58.908073"
       height="1062.9921"
       x="5255.8765"
       y="-4629.0234" />
    <path
       sodipodi:type="arc"
       style="fill:#ff5555"
       id="path3277"
       sodipodi:cx="2362.2139"
       sodipodi:cy="-3401.0884"
       sodipodi:rx="382.9025"
       sodipodi:ry="388.7933"
       d="m 2745.1164,-3401.0884 a 382.9025,388.7933 0 1 1 -765.805,0 382.9025,388.7933 0 1 1 765.805,0 z"
       transform="matrix(1,0,0,1.0045467,565.51752,-894.05828)" />
    <rect
       style="fill:#ff5555"
       id="rect3279"
       width="223.85069"
       height="4571.2666"
       x="2815.8059"
       y="-3589.594" />
    <g
       id="g3046">
      <rect
         y="343.70074"
         x="0"
         height="708.66144"
         width="2125.9841"
         id="rect3023"
         style="fill:#e6e6e6" />
      <g
         transform="matrix(0.87499999,0,0,1,-420.57382,1376.5397)"
         id="g3030">
        <rect
           style="fill:#808080"
           id="rect3025"
           width="283.46457"
           height="318.89764"
           x="683.13049"
           y="-820.24054" />
        <path
           sodipodi:type="arc"
           style="fill:#0000ff"
           id="path3028"
           sodipodi:cx="262.42209"
           sodipodi:cy="-1436.4822"
           sodipodi:rx="37.488869"
           sodipodi:ry="39.571583"
           d="m 299.91096,-1436.4822 c 0,21.8548 -16.78434,39.5716 -37.48887,39.5716 -20.70453,0 -37.48887,-17.7168 -37.48887,-39.5716 0,-21.8548 16.78434,-39.5716 37.48887,-39.5716 20.70453,0 37.48887,17.7168 37.48887,39.5716 z"
           transform="matrix(1.1814531,0,0,1.1192713,517.35278,941.38136)" />
      </g>
      <g
         id="g3034"
         transform="matrix(0.87499999,0,0,1,606.98523,1376.5397)">
        <rect
           y="-820.24054"
           x="683.13049"
           height="318.89764"
           width="283.46457"
           id="rect3036"
           style="fill:#808080" />
        <path
           transform="matrix(1.1814531,0,0,1.1192713,517.35278,941.38136)"
           d="m 299.91096,-1436.4822 c 0,21.8548 -16.78434,39.5716 -37.48887,39.5716 -20.70453,0 -37.48887,-17.7168 -37.48887,-39.5716 0,-21.8548 16.78434,-39.5716 37.48887,-39.5716 20.70453,0 37.48887,17.7168 37.48887,39.5716 z"
           sodipodi:ry="39.571583"
           sodipodi:rx="37.488869"
           sodipodi:cy="-1436.4822"
           sodipodi:cx="262.42209"
           id="path3038"
           style="fill:#0000ff"
           sodipodi:type="arc" />
      </g>
      <rect
         y="556.29919"
         x="496.06299"
         height="318.89764"
         width="425.19684"
         id="rect3042"
         style="fill:#008000" />
      <rect
         style="fill:#008000"
         id="rect3044"
         width="425.19684"
         height="318.89764"
         x="1523.6221"
         y="556.29919" />
    </g>
    <flowRoot
       xml:space="preserve"
       id="flowRoot3026"
       style="font-size:40px;font-style:normal;font-weight:normal;line-height:125%;letter-spacing:0px;word-spacing:0px;fill:#000000;fill-opacity:1;stroke:none;font-family:Sans"><flowRegion
         id="flowRegion3028"><rect
           id="rect3030"
           width="0"
           height="58.908073"
           x="-94.252922"
           y="-290.74191" /></flowRegion><flowPara
         id="flowPara3032">command table</flowPara><flowPara
         id="flowPara3034" /></flowRoot>    <text
       xml:space="preserve"
       style="font-size:265.4513855px;font-style:normal;font-weight:normal;line-height:125%;letter-spacing:0px;word-spacing:0px;fill:#000000;fill-opacity:1;stroke:none;font-family:Sans"
       x="59.266998"
       y="254.70847"
       id="text3036"
       sodipodi:linespacing="125%"
       transform="scale(0.99526949,1.004753)"><tspan
         sodipodi:role="line"
         id="tspan3038"
         x="59.266998"
         y="254.70847">command board</tspan></text>
    <rect
       style="fill:#f2f2f2;fill-opacity:1;stroke:#f2f2f2;stroke-width:0.25766106999999999;stroke-miterlimit:4;stroke-opacity:1;stroke-dasharray:none"
       id="rect4834-4"
       width="2111.5535"
       height="294.65344"
       x="-381.77316"
       y="-2144.9675"
       inkscape:export-filename="C:\Users\aca\Dropbox\PIC\path3041-0-6-3-4.png"
       inkscape:export-xdpi="90"
       inkscape:export-ydpi="90" />
    <g
       transform="matrix(1.0311577,0,0,1.0311577,-381.902,-2935.3365)"
       id="g3052">
      <rect
         inkscape:export-ydpi="90"
         inkscape:export-xdpi="90"
         inkscape:export-filename="C:\Users\aca\Dropbox\PIC\path3041-0-6-3-4.png"
         y="785.5542"
         x="0.13652444"
         height="19.027248"
         width="2047.7269"
         id="rect4691-3"
         style="fill:#373535;fill-opacity:1;stroke:#f2f2f2;stroke-width:0.25012487;stroke-miterlimit:4;stroke-opacity:1;stroke-dasharray:none" />
      <rect
         inkscape:export-ydpi="90"
         inkscape:export-xdpi="90"
         inkscape:export-filename="C:\Users\aca\Dropbox\PIC\path3041-0-6-3-4.png"
         y="823.64868"
         x="0.13652444"
         height="19.027248"
         width="2047.7269"
         id="rect4691-2-9"
         style="fill:#373535;fill-opacity:1;stroke:#f2f2f2;stroke-width:0.25012487;stroke-miterlimit:4;stroke-opacity:1;stroke-dasharray:none" />
      <rect
         inkscape:export-ydpi="90"
         inkscape:export-xdpi="90"
         inkscape:export-filename="C:\Users\aca\Dropbox\PIC\path3041-0-6-3-4.png"
         y="861.74866"
         x="0.13652444"
         height="19.027248"
         width="2047.7269"
         id="rect4691-6-8"
         style="fill:#373535;fill-opacity:1;stroke:#f2f2f2;stroke-width:0.25012487;stroke-miterlimit:4;stroke-opacity:1;stroke-dasharray:none" />
      <rect
         inkscape:export-ydpi="90"
         inkscape:export-xdpi="90"
         inkscape:export-filename="C:\Users\aca\Dropbox\PIC\path3041-0-6-3-4.png"
         y="899.84851"
         x="0.13628027"
         height="19.027248"
         width="2047.7269"
         id="rect4691-0-8"
         style="fill:#373535;fill-opacity:1;stroke:#f2f2f2;stroke-width:0.25012487;stroke-miterlimit:4;stroke-opacity:1;stroke-dasharray:none" />
      <rect
         inkscape:export-ydpi="90"
         inkscape:export-xdpi="90"
         inkscape:export-filename="C:\Users\aca\Dropbox\PIC\path3041-0-6-3-4.png"
         y="937.94849"
         x="0.13652444"
         height="19.027248"
         width="2047.7269"
         id="rect4691-1-0"
         style="fill:#373535;fill-opacity:1;stroke:#f2f2f2;stroke-width:0.25012487;stroke-miterlimit:4;stroke-opacity:1;stroke-dasharray:none" />
      <rect
         inkscape:export-ydpi="90"
         inkscape:export-xdpi="90"
         inkscape:export-filename="C:\Users\aca\Dropbox\PIC\path3041-0-6-3-4.png"
         y="976.0625"
         x="0.13652444"
         height="19.027248"
         width="2047.7269"
         id="rect4691-65-8"
         style="fill:#373535;fill-opacity:1;stroke:#f2f2f2;stroke-width:0.25012487;stroke-miterlimit:4;stroke-opacity:1;stroke-dasharray:none" />
      <rect
         inkscape:export-ydpi="90"
         inkscape:export-xdpi="90"
         inkscape:export-filename="C:\Users\aca\Dropbox\PIC\path3041-0-6-3-4.png"
         y="1014.1483"
         x="0.13652444"
         height="19.027248"
         width="2047.7269"
         id="rect4691-7-7"
         style="fill:#373535;fill-opacity:1;stroke:#f2f2f2;stroke-width:0.25012487;stroke-miterlimit:4;stroke-opacity:1;stroke-dasharray:none" />
      <path
         inkscape:export-ydpi="90"
         inkscape:export-xdpi="90"
         inkscape:export-filename="C:\Users\aca\Dropbox\PIC\path3041-0-6-3-4.png"
         id="path3027-3-9-1-5-7"
         style="fill:#373535;fill-opacity:1;fill-rule:nonzero;stroke:#f2f2f2;stroke-width:0.25012487;stroke-miterlimit:4;stroke-opacity:1;stroke-dasharray:none"
         d="m 151.81251,880.78482 75.84346,0 0,19.0513 -75.84346,0 0,-19.0513 z m 0,-38.0975 75.84346,0 0,19.0519 -75.84346,0 0,-19.0519 z m 0,-38.0967 75.84346,0 0,19.0452 -75.84346,0 0,-19.0452 z m 0,-38.1033 75.84346,0 0,19.0454 -75.84346,0 0,-19.0454 z m -37.92495,152.4008 113.76841,0 0,19.0455 -113.76841,0 0,-19.0455 z M 0.12506244,1033.1857 l 113.76841756,0 0,19.0514 -113.76841756,0 0,-19.0514 z m 0,-38.09738 151.68744756,0 0,19.05198 -151.68744756,0 0,-19.05198 z m 0,-38.0969 189.61228756,0 0,19.0455 -189.61228756,0 0,-19.0455 z m 0,-38.1033 75.84347956,0 0,19.0455 -75.84347956,0 0,-19.0455 z m 0,-38.1033 75.84347956,0 0,19.0513 -75.84347956,0 0,-19.0513 z m 0,-38.0975 75.84347956,0 0,19.0519 -75.84347956,0 0,-19.0519 z m 0,-38.0967 75.84347956,0 0,19.0452 -75.84347956,0 0,-19.0452 z m 0,-38.1033 75.84347956,0 0,19.0454 -75.84347956,0 0,-19.0454 z"
         inkscape:connector-curvature="0" />
      <path
         inkscape:export-ydpi="90"
         inkscape:export-xdpi="90"
         inkscape:export-filename="C:\Users\aca\Dropbox\PIC\path3041-0-6-3-4.png"
         id="path3029-8-8-5-4-8"
         style="fill:#373535;fill-opacity:1;fill-rule:nonzero;stroke:#f2f2f2;stroke-width:0.25012487;stroke-miterlimit:4;stroke-opacity:1;stroke-dasharray:none"
         d="m 246.61233,1033.1857 75.84397,0 0,19.0514 -75.84397,0 0,-19.0514 z m 0,-38.09738 75.84397,0 0,19.05198 -75.84397,0 0,-19.05198 z m 0,-38.0969 75.84397,0 0,19.0455 -75.84397,0 0,-19.0455 z m 0,-38.1033 75.84397,0 0,19.0455 -75.84397,0 0,-19.0455 z m 0,-38.1033 75.84397,0 0,19.0513 -75.84397,0 0,-19.0513 z m 0,-76.1942 75.84397,0 0,19.0452 -75.84397,0 0,-19.0452 z"
         inkscape:connector-curvature="0" />
      <path
         inkscape:export-ydpi="90"
         inkscape:export-xdpi="90"
         inkscape:export-filename="C:\Users\aca\Dropbox\PIC\path3041-0-6-3-4.png"
         id="path3031-9-4-4-1-3"
         style="fill:#373535;fill-opacity:1;fill-rule:nonzero;stroke:#f2f2f2;stroke-width:0.25012487;stroke-miterlimit:4;stroke-opacity:1;stroke-dasharray:none"
         d="m 493.10009,842.68732 75.84348,0 0,19.0519 -75.84348,0 0,-19.0519 z m -113.76903,-76.2 151.68756,0 0,19.0454 -151.68756,0 0,-19.0454 z m -37.91842,266.69838 75.84338,0 0,19.0514 -75.84338,0 0,-19.0514 z m 0,-38.09738 75.84338,0 0,19.05198 -75.84338,0 0,-19.05198 z m 0,-38.0969 75.84338,0 0,19.0455 -75.84338,0 0,-19.0455 z m 0,-38.1033 189.6123,0 0,19.0455 -189.6123,0 0,-19.0455 z m 0,-38.1033 227.53093,0 0,19.0513 -227.53093,0 0,-19.0513 z m 0,-38.0975 75.84338,0 0,19.0519 -75.84338,0 0,-19.0519 z m 0,-38.0967 227.53093,0 0,19.0452 -227.53093,0 0,-19.0452 z"
         inkscape:connector-curvature="0" />
      <path
         inkscape:export-ydpi="90"
         inkscape:export-xdpi="90"
         inkscape:export-filename="C:\Users\aca\Dropbox\PIC\path3041-0-6-3-4.png"
         id="path3033-3-0-2-2-8"
         style="fill:#373535;fill-opacity:1;fill-rule:nonzero;stroke:#f2f2f2;stroke-width:0.25012487;stroke-miterlimit:4;stroke-opacity:1;stroke-dasharray:none"
         d="m 986.07512,842.68732 75.84338,0 0,19.0519 -75.84338,0 0,-19.0519 z m -113.769,-76.2 151.68738,0 0,19.0454 -151.68738,0 0,-19.0454 z m -37.91852,266.69838 75.84348,0 0,19.0514 -75.84348,0 0,-19.0514 z m 0,-38.09738 75.84348,0 0,19.05198 -75.84348,0 0,-19.05198 z m 0,-38.0969 75.84348,0 0,19.0455 -75.84348,0 0,-19.0455 z m 0,-38.1033 189.6059,0 0,19.0455 -189.6059,0 0,-19.0455 z m 0,-38.1033 227.5309,0 0,19.0513 -227.5309,0 0,-19.0513 z m 0,-38.0975 75.84348,0 0,19.0519 -75.84348,0 0,-19.0519 z m 0,-38.0967 227.5309,0 0,19.0452 -227.5309,0 0,-19.0452 z"
         inkscape:connector-curvature="0" />
      <path
         inkscape:export-ydpi="90"
         inkscape:export-xdpi="90"
         inkscape:export-filename="C:\Users\aca\Dropbox\PIC\path3041-0-6-3-4.png"
         id="path3035-4-7-0-0-3"
         style="fill:#373535;fill-opacity:1;fill-rule:nonzero;stroke:#f2f2f2;stroke-width:0.25012487;stroke-miterlimit:4;stroke-opacity:1;stroke-dasharray:none"
         d="m 1232.5624,1033.1857 75.8496,0 0,19.0514 -75.8496,0 0,-19.0514 z m 0,-38.09738 75.8496,0 0,19.05198 -75.8496,0 0,-19.05198 z m 0,-152.401 75.8496,0 0,19.0519 -75.8496,0 0,-19.0519 z m -37.9251,114.3041 113.7747,0 0,19.0455 -113.7747,0 0,-19.0455 z m -75.8376,-190.5041 151.6875,0 0,19.0454 -151.6875,0 0,-19.0454 z m -37.9249,266.69838 75.85,0 0,19.0514 -75.85,0 0,-19.0514 z m 0,-38.09738 75.85,0 0,19.05198 -75.85,0 0,-19.05198 z m 0,-38.0969 75.85,0 0,19.0455 -75.85,0 0,-19.0455 z m 0,-38.1033 189.6124,0 0,19.0455 -189.6124,0 0,-19.0455 z m 0,-38.1033 227.5372,0 0,19.0513 -227.5372,0 0,-19.0513 z m 0,-38.0975 75.85,0 0,19.0519 -75.85,0 0,-19.0519 z m 0,-38.0967 227.5372,0 0,19.0452 -227.5372,0 0,-19.0452 z"
         inkscape:connector-curvature="0" />
      <path
         inkscape:export-ydpi="90"
         inkscape:export-xdpi="90"
         inkscape:export-filename="C:\Users\aca\Dropbox\PIC\path3041-0-6-3-4.png"
         id="path3037-4-6-9-0-7"
         style="fill:#373535;fill-opacity:1;fill-rule:nonzero;stroke:#f2f2f2;stroke-width:0.25012487;stroke-miterlimit:4;stroke-opacity:1;stroke-dasharray:none"
         d="m 1479.056,956.99142 75.8376,0 0,19.0455 -75.8376,0 0,-19.0455 z m 0,-38.1033 75.8376,0 0,19.0455 -75.8376,0 0,-19.0455 z m 0,-38.1033 75.8376,0 0,19.0513 -75.8376,0 0,-19.0513 z m 0,-38.0975 75.8376,0 0,19.0519 -75.8376,0 0,-19.0519 z m -113.7749,190.49838 151.6875,0 0,19.0514 -151.6875,0 0,-19.0514 z m 0,-266.69838 151.6875,0 0,19.0454 -151.6875,0 0,-19.0454 z m -37.9126,228.601 227.5251,0 0,19.05198 -227.5251,0 0,-19.05198 z m 0,-38.0969 75.8375,0 0,19.0455 -75.8375,0 0,-19.0455 z m 0,-38.1033 75.8375,0 0,19.0455 -75.8375,0 0,-19.0455 z m 0,-38.1033 75.8375,0 0,19.0513 -75.8375,0 0,-19.0513 z m 0,-38.0975 75.8375,0 0,19.0519 -75.8375,0 0,-19.0519 z m 0,-38.0967 227.5251,0 0,19.0452 -227.5251,0 0,-19.0452 z"
         inkscape:connector-curvature="0" />
      <path
         inkscape:export-ydpi="90"
         inkscape:export-xdpi="90"
         inkscape:export-filename="C:\Users\aca\Dropbox\PIC\path3041-0-6-3-4.png"
         id="path3039-6-3-7-1-1"
         style="fill:#373535;fill-opacity:1;fill-rule:nonzero;stroke:#f2f2f2;stroke-width:0.25012487;stroke-miterlimit:4;stroke-opacity:1;stroke-dasharray:none"
         d="m 1649.6998,1033.1857 75.8376,0 0,19.0514 -75.8376,0 0,-19.0514 z m 0,-38.09738 75.8376,0 0,19.05198 -75.8376,0 0,-19.05198 z m 0,-38.0969 75.8376,0 0,19.0455 -75.8376,0 0,-19.0455 z m 0,-38.1033 75.8376,0 0,19.0455 -75.8376,0 0,-19.0455 z m 0,-38.1033 75.8376,0 0,19.0513 -75.8376,0 0,-19.0513 z m 0,-38.0975 75.8376,0 0,19.0519 -75.8376,0 0,-19.0519 z m -75.8499,-38.0967 227.5373,0 0,19.0452 -227.5373,0 0,-19.0452 z m 0,-38.1033 227.5373,0 0,19.0454 -227.5373,0 0,-19.0454 z"
         inkscape:connector-curvature="0" />
      <path
         inkscape:export-ydpi="90"
         inkscape:export-xdpi="90"
         id="path3041-0-6-3-4-0"
         style="fill:#373535;fill-opacity:1;fill-rule:nonzero;stroke:#f2f2f2;stroke-width:0.25012487;stroke-miterlimit:4;stroke-opacity:1;stroke-dasharray:none"
         d="m 1972.0373,956.99142 75.8376,0 0,19.0455 -75.8376,0 0,-19.0455 z m 0,-38.1033 75.8376,0 0,19.0455 -75.8376,0 0,-19.0455 z m 0,-38.1033 75.8376,0 0,19.0513 -75.8376,0 0,-19.0513 z m 0,-38.0975 75.8376,0 0,19.0519 -75.8376,0 0,-19.0519 z m -113.7747,190.49838 151.6873,0 0,19.0514 -151.6873,0 0,-19.0514 z m 0,-266.69838 151.6873,0 0,19.0454 -151.6873,0 0,-19.0454 z m -37.9191,228.601 227.525,0 0,19.05198 -227.525,0 0,-19.05198 z m 0,-38.0969 75.8375,0 0,19.0455 -75.8375,0 0,-19.0455 z m 0,-38.1033 75.8375,0 0,19.0455 -75.8375,0 0,-19.0455 z m 0,-38.1033 75.8375,0 0,19.0513 -75.8375,0 0,-19.0513 z m 0,-38.0975 75.8375,0 0,19.0519 -75.8375,0 0,-19.0519 z m 0,-38.0967 227.525,0 0,19.0452 -227.525,0 0,-19.0452 z"
         inkscape:connector-curvature="0" />
    </g>
    <text
       xml:space="preserve"
       style="font-size:99.88861084px;font-style:normal;font-weight:normal;line-height:125%;letter-spacing:0px;word-spacing:0px;fill:#000000;fill-opacity:1;stroke:none;font-family:Sans"
       x="-345.95163"
       y="-1665.688"
       id="text3049"
       sodipodi:linespacing="125%"><tspan
         sodipodi:role="line"
         id="tspan3051"
         x="-345.95163"
         y="-1665.688">LOGO glass 59.6x11.0 cm</tspan><tspan
         sodipodi:role="line"
         x="-345.95163"
         y="-1540.8273"
         id="tspan3053" /></text>
  </g>
</svg>
